<svg xmlns="http://www.w3.org/2000/svg" xmlns:xlink="http://www.w3.org/1999/xlink" width="1920" height="1080" viewBox="0 0 1920 1080">
  <defs>
    <linearGradient id="linear-gradient" x1="0.5" y1="-0.102" x2="0.516" y2="1.349" gradientUnits="objectBoundingBox">
      <stop offset="0" stop-color="#f8fdd7"/>
      <stop offset="0.459" stop-color="#fe9ece"/>
      <stop offset="0.629" stop-color="#c989db"/>
      <stop offset="1" stop-color="#565bf6"/>
    </linearGradient>
    <clipPath id="clip-Web_1920_2">
      <rect width="1920" height="1080"/>
    </clipPath>
  </defs>
  <g id="Web_1920_2" data-name="Web 1920 – 2" clip-path="url(#clip-Web_1920_2)">
    <rect width="1920" height="1080" fill="#fff"/>
    <g id="Прямоугольник_6" data-name="Прямоугольник 6" transform="translate(0 -1)" stroke="#707070" stroke-width="1" fill="url(#linear-gradient)">
      <rect width="1920" height="1080" stroke="none"/>
      <rect x="0.5" y="0.5" width="1919" height="1079" fill="none"/>
    </g>
    <rect id="Прямоугольник_10" data-name="Прямоугольник 10" width="1920" height="175" transform="translate(-1)" fill="rgba(255,255,255,0.47)"/>
    <text id="Meteo_Iv" data-name="Meteo Iv" transform="translate(167 115)" fill="#585858" font-size="70" font-family="Norican-Regular, Norican"><tspan x="0" y="0">Meteo Iv</tspan></text>
    <text id="Prévisions_pour_3_jours" data-name="Prévisions pour 3 jours" transform="translate(1100 100)" fill="#585858" font-size="30" font-family="Gadugi"><tspan x="0" y="0">Prévisions pour 3 jours</tspan></text>
    <text id="Accueil" transform="translate(906 100)" fill="#585858" font-size="30" font-family="Gadugi"><tspan x="0" y="0">Accueil</tspan></text>
    <text id="Prévisions_pour_15_jours" data-name="Prévisions pour 15 jours" transform="translate(1500 100)" fill="#585858" font-size="30" font-family="Gadugi"><tspan x="0" y="0">Prévisions pour 15 jours</tspan></text>
    <text id="Marseille" transform="translate(809 240)" fill="#fff" font-size="65" font-family="Gadugi-Bold, Gadugi" font-weight="700"><tspan x="0" y="70">Marseille</tspan></text>
    <rect id="Прямоугольник_9" data-name="Прямоугольник 9" width="1919" height="7" transform="translate(1 175)" fill="rgba(138,138,138,0.8)" opacity="0.43"/>
    <text id="Samedi_14_août_" data-name="Samedi,14 août " transform="translate(809 369)" fill="#fff" font-size="40" font-family="Gadugi-Bold, Gadugi" font-weight="700"><tspan x="0" y="0">Samedi,14 août </tspan></text>
    <g id="Прямоугольник_11" data-name="Прямоугольник 11" transform="translate(92 462)" fill="#fff" stroke="#707070" stroke-width="1" opacity="0.5">
      <rect width="511" height="481" rx="16" stroke="none"/>
      <rect x="0.5" y="0.5" width="510" height="480" rx="15.5" fill="none"/>
    </g>
    <rect id="Прямоугольник_14" data-name="Прямоугольник 14" width="511" height="163" rx="16" transform="translate(92 462)" fill="#fff" opacity="0.5"/>
    <rect id="Прямоугольник_16" data-name="Прямоугольник 16" width="511" height="163" rx="16" transform="translate(1318 461)" fill="#fff" opacity="0.5"/>
    <rect id="Прямоугольник_15" data-name="Прямоугольник 15" width="511" height="163" rx="16" transform="translate(705 466)" fill="#fff" opacity="0.5"/>
    <g id="Прямоугольник_12" data-name="Прямоугольник 12" transform="translate(705 462)" fill="#fff" stroke="#707070" stroke-width="1" opacity="0.5">
      <rect width="511" height="481" rx="16" stroke="none"/>
      <rect x="0.5" y="0.5" width="510" height="480" rx="15.5" fill="none"/>
    </g>
    <g id="Прямоугольник_13" data-name="Прямоугольник 13" transform="translate(1318 462)" fill="#fff" stroke="#707070" stroke-width="1" opacity="0.5">
      <rect width="511" height="481" rx="16" stroke="none"/>
      <rect x="0.5" y="0.5" width="510" height="480" rx="15.5" fill="none"/>
    </g>
    <g id="sun" transform="translate(892.56 667)">
      <path id="Контур_12" data-name="Контур 12" d="M121,164.474A43.474,43.474,0,1,0,164.474,121,43.523,43.523,0,0,0,121,164.474Zm43.474-33.813a33.813,33.813,0,1,1-33.813,33.813A33.852,33.852,0,0,1,164.474,130.661Z" transform="translate(-82.034 -82.034)" fill="#676665"/>
      <path id="Контур_13" data-name="Контур 13" d="M369.694,369.694a4.83,4.83,0,0,0,0,6.831l23.323,23.323a4.83,4.83,0,0,0,6.831-6.831l-23.323-23.323A4.83,4.83,0,0,0,369.694,369.694Z" transform="translate(-249.682 -249.682)" fill="#676665"/>
      <path id="Контур_14" data-name="Контур 14" d="M49.541,42.709a4.83,4.83,0,0,0-6.831,6.831L66.033,72.864a4.83,4.83,0,0,0,6.831-6.831Z" transform="translate(-27.996 -27.996)" fill="#676665"/>
      <path id="Контур_15" data-name="Контур 15" d="M42.709,399.849a4.83,4.83,0,0,0,6.831,0l23.323-23.323a4.83,4.83,0,0,0-6.831-6.831L42.709,393.018A4.83,4.83,0,0,0,42.709,399.849Z" transform="translate(-27.996 -249.682)" fill="#676665"/>
      <path id="Контур_16" data-name="Контур 16" d="M399.849,42.709a4.83,4.83,0,0,0-6.831,0L369.694,66.033a4.83,4.83,0,0,0,6.831,6.831l23.323-23.323A4.83,4.83,0,0,0,399.849,42.709Z" transform="translate(-249.682 -27.996)" fill="#676665"/>
      <path id="Контур_17" data-name="Контур 17" d="M312.862,407.664a4.831,4.831,0,0,0-2.614,6.312l3.7,8.925a4.831,4.831,0,0,0,8.926-3.7l-3.7-8.925A4.831,4.831,0,0,0,312.862,407.664Z" transform="translate(-210.089 -276.133)" fill="#676665"/>
      <path id="Контур_18" data-name="Контур 18" d="M171.01,65.2a4.831,4.831,0,0,0,2.614-6.311l-3.7-8.925a4.831,4.831,0,1,0-8.926,3.7l3.7,8.925A4.831,4.831,0,0,0,171.01,65.2Z" transform="translate(-108.904 -31.852)" fill="#676665"/>
      <path id="Контур_19" data-name="Контур 19" d="M58.89,310.248l-8.925,3.7a4.831,4.831,0,0,0,3.7,8.926l8.925-3.7a4.831,4.831,0,1,0-3.7-8.926Z" transform="translate(-31.852 -210.089)" fill="#676665"/>
      <path id="Контур_20" data-name="Контур 20" d="M413.975,173.625l8.925-3.7A4.831,4.831,0,1,0,419.2,161l-8.925,3.7a4.831,4.831,0,1,0,3.7,8.926Z" transform="translate(-276.133 -108.905)" fill="#676665"/>
      <path id="Контур_21" data-name="Контур 21" d="M164.7,410.278,161,419.2a4.831,4.831,0,0,0,8.926,3.7l3.7-8.925a4.831,4.831,0,1,0-8.926-3.7Z" transform="translate(-108.905 -276.133)" fill="#676665"/>
      <path id="Контур_22" data-name="Контур 22" d="M319.173,62.587l3.7-8.925a4.831,4.831,0,1,0-8.926-3.7l-3.7,8.925a4.831,4.831,0,0,0,8.926,3.7Z" transform="translate(-210.088 -31.852)" fill="#676665"/>
      <path id="Контур_23" data-name="Контур 23" d="M62.587,164.7,53.662,161a4.831,4.831,0,0,0-3.7,8.926l8.925,3.7a4.831,4.831,0,1,0,3.7-8.926Z" transform="translate(-31.852 -108.905)" fill="#676665"/>
      <path id="Контур_24" data-name="Контур 24" d="M422.9,313.945l-8.925-3.7a4.831,4.831,0,1,0-3.7,8.926l8.925,3.7a4.831,4.831,0,1,0,3.7-8.926Z" transform="translate(-276.133 -210.089)" fill="#676665"/>
      <path id="Контур_25" data-name="Контур 25" d="M241,425.83v19.644a4.83,4.83,0,0,0,9.661,0V425.83a4.83,4.83,0,0,0-9.661,0Z" transform="translate(-163.391 -285.425)" fill="#676665"/>
      <path id="Контур_26" data-name="Контур 26" d="M250.661,24.474V4.83a4.83,4.83,0,0,0-9.661,0V24.474a4.83,4.83,0,0,0,9.661,0Z" transform="translate(-163.391)" fill="#676665"/>
      <path id="Контур_27" data-name="Контур 27" d="M0,245.83a4.831,4.831,0,0,0,4.83,4.831H24.474a4.83,4.83,0,0,0,0-9.661H4.83A4.831,4.831,0,0,0,0,245.83Z" transform="translate(0 -163.391)" fill="#676665"/>
      <path id="Контур_28" data-name="Контур 28" d="M445.474,241H425.83a4.83,4.83,0,0,0,0,9.661h19.644a4.83,4.83,0,0,0,0-9.661Z" transform="translate(-285.425 -163.391)" fill="#676665"/>
    </g>
    <g id="sun-2" data-name="sun" transform="translate(265.56 667)">
      <path id="Контур_12-2" data-name="Контур 12" d="M121,164.474A43.474,43.474,0,1,0,164.474,121,43.523,43.523,0,0,0,121,164.474Zm43.474-33.813a33.813,33.813,0,1,1-33.813,33.813A33.852,33.852,0,0,1,164.474,130.661Z" transform="translate(-82.034 -82.034)" fill="#676665"/>
      <path id="Контур_13-2" data-name="Контур 13" d="M369.694,369.694a4.83,4.83,0,0,0,0,6.831l23.323,23.323a4.83,4.83,0,0,0,6.831-6.831l-23.323-23.323A4.83,4.83,0,0,0,369.694,369.694Z" transform="translate(-249.682 -249.682)" fill="#676665"/>
      <path id="Контур_14-2" data-name="Контур 14" d="M49.541,42.709a4.83,4.83,0,0,0-6.831,6.831L66.033,72.864a4.83,4.83,0,0,0,6.831-6.831Z" transform="translate(-27.996 -27.996)" fill="#676665"/>
      <path id="Контур_15-2" data-name="Контур 15" d="M42.709,399.849a4.83,4.83,0,0,0,6.831,0l23.323-23.323a4.83,4.83,0,0,0-6.831-6.831L42.709,393.018A4.83,4.83,0,0,0,42.709,399.849Z" transform="translate(-27.996 -249.682)" fill="#676665"/>
      <path id="Контур_16-2" data-name="Контур 16" d="M399.849,42.709a4.83,4.83,0,0,0-6.831,0L369.694,66.033a4.83,4.83,0,0,0,6.831,6.831l23.323-23.323A4.83,4.83,0,0,0,399.849,42.709Z" transform="translate(-249.682 -27.996)" fill="#676665"/>
      <path id="Контур_17-2" data-name="Контур 17" d="M312.862,407.664a4.831,4.831,0,0,0-2.614,6.312l3.7,8.925a4.831,4.831,0,0,0,8.926-3.7l-3.7-8.925A4.831,4.831,0,0,0,312.862,407.664Z" transform="translate(-210.089 -276.133)" fill="#676665"/>
      <path id="Контур_18-2" data-name="Контур 18" d="M171.01,65.2a4.831,4.831,0,0,0,2.614-6.311l-3.7-8.925a4.831,4.831,0,1,0-8.926,3.7l3.7,8.925A4.831,4.831,0,0,0,171.01,65.2Z" transform="translate(-108.904 -31.852)" fill="#676665"/>
      <path id="Контур_19-2" data-name="Контур 19" d="M58.89,310.248l-8.925,3.7a4.831,4.831,0,0,0,3.7,8.926l8.925-3.7a4.831,4.831,0,1,0-3.7-8.926Z" transform="translate(-31.852 -210.089)" fill="#676665"/>
      <path id="Контур_20-2" data-name="Контур 20" d="M413.975,173.625l8.925-3.7A4.831,4.831,0,1,0,419.2,161l-8.925,3.7a4.831,4.831,0,1,0,3.7,8.926Z" transform="translate(-276.133 -108.905)" fill="#676665"/>
      <path id="Контур_21-2" data-name="Контур 21" d="M164.7,410.278,161,419.2a4.831,4.831,0,0,0,8.926,3.7l3.7-8.925a4.831,4.831,0,1,0-8.926-3.7Z" transform="translate(-108.905 -276.133)" fill="#676665"/>
      <path id="Контур_22-2" data-name="Контур 22" d="M319.173,62.587l3.7-8.925a4.831,4.831,0,1,0-8.926-3.7l-3.7,8.925a4.831,4.831,0,0,0,8.926,3.7Z" transform="translate(-210.088 -31.852)" fill="#676665"/>
      <path id="Контур_23-2" data-name="Контур 23" d="M62.587,164.7,53.662,161a4.831,4.831,0,0,0-3.7,8.926l8.925,3.7a4.831,4.831,0,1,0,3.7-8.926Z" transform="translate(-31.852 -108.905)" fill="#676665"/>
      <path id="Контур_24-2" data-name="Контур 24" d="M422.9,313.945l-8.925-3.7a4.831,4.831,0,1,0-3.7,8.926l8.925,3.7a4.831,4.831,0,1,0,3.7-8.926Z" transform="translate(-276.133 -210.089)" fill="#676665"/>
      <path id="Контур_25-2" data-name="Контур 25" d="M241,425.83v19.644a4.83,4.83,0,0,0,9.661,0V425.83a4.83,4.83,0,0,0-9.661,0Z" transform="translate(-163.391 -285.425)" fill="#676665"/>
      <path id="Контур_26-2" data-name="Контур 26" d="M250.661,24.474V4.83a4.83,4.83,0,0,0-9.661,0V24.474a4.83,4.83,0,0,0,9.661,0Z" transform="translate(-163.391)" fill="#676665"/>
      <path id="Контур_27-2" data-name="Контур 27" d="M0,245.83a4.831,4.831,0,0,0,4.83,4.831H24.474a4.83,4.83,0,0,0,0-9.661H4.83A4.831,4.831,0,0,0,0,245.83Z" transform="translate(0 -163.391)" fill="#676665"/>
      <path id="Контур_28-2" data-name="Контур 28" d="M445.474,241H425.83a4.83,4.83,0,0,0,0,9.661h19.644a4.83,4.83,0,0,0,0-9.661Z" transform="translate(-285.425 -163.391)" fill="#676665"/>
    </g>
    <text id="Matin_8h-12h" data-name="Matin
8h-12h" transform="translate(343 543)" fill="#676665" font-size="40" font-family="Gadugi-Bold, Gadugi" font-weight="700"><tspan x="-55.469" y="0">Matin</tspan><tspan x="-66.68" y="53">8h-12h</tspan></text>
    <text id="Après-midi_12h-18h" data-name="Après-midi
12h-18h" transform="translate(975 537)" fill="#676665" font-size="40" font-family="Gadugi-Bold, Gadugi" font-weight="700"><tspan x="-104.199" y="0">Après-midi</tspan><tspan x="-78.184" y="53">12h-18h</tspan></text>
    <text id="Soir_18h-0h" data-name="Soir
18h-0h" transform="translate(1574 530)" fill="#676665" font-size="40" font-family="Gadugi-Bold, Gadugi" font-weight="700"><tspan x="-37.08" y="0">Soir</tspan><tspan x="-66.68" y="53">18h-0h</tspan></text>
    <text id="_26_" data-name="+26°" transform="translate(348 893)" fill="#676665" font-size="40" font-family="Gadugi-Bold, Gadugi" font-weight="700"><tspan x="-44.746" y="0">+26°</tspan></text>
    <text id="_33_" data-name="+33°" transform="translate(975 893)" fill="#676665" font-size="40" font-family="Gadugi-Bold, Gadugi" font-weight="700"><tspan x="-44.746" y="0">+33°</tspan></text>
    <text id="_27_" data-name="+27°" transform="translate(1589 893)" fill="#676665" font-size="40" font-family="Gadugi-Bold, Gadugi" font-weight="700"><tspan x="-44.746" y="0">+27°</tspan></text>
    <g id="rain" transform="translate(1506.999 654.561)">
      <path id="Контур_3" data-name="Контур 3" d="M128.813,108.2H36.068a36.067,36.067,0,1,1,5.424-71.73,41.223,41.223,0,0,1,81.9,0,36.07,36.07,0,1,1,5.424,71.73ZM36.068,46.372a25.762,25.762,0,1,0,0,51.525h92.745a25.762,25.762,0,1,0-8.625-50.048,5.153,5.153,0,0,1-6.87-5.137c.025-.458.037-.946.037-1.493a30.915,30.915,0,1,0-61.83,0c0,.546.012,1.034.037,1.493a5.153,5.153,0,0,1-6.87,5.137A25.687,25.687,0,0,0,36.068,46.372Z" transform="translate(0 0)" fill="#676665"/>
      <path id="Контур_4" data-name="Контур 4" d="M205.147,386.033a5.153,5.153,0,0,1-4.282-8.011l5.152-7.729a5.152,5.152,0,0,1,8.574,5.716l-5.152,7.729A5.148,5.148,0,0,1,205.147,386.033Z" transform="translate(-135.593 -249.492)" fill="#676665"/>
      <path id="Контур_5" data-name="Контур 5" d="M69.147,386.033a5.153,5.153,0,0,1-4.282-8.011l5.152-7.729a5.152,5.152,0,0,1,8.574,5.716l-5.152,7.729A5.148,5.148,0,0,1,69.147,386.033Z" transform="translate(-43.389 -249.492)" fill="#676665"/>
      <path id="Контур_6" data-name="Контур 6" d="M357.147,386.033a5.153,5.153,0,0,1-4.282-8.011l5.152-7.729a5.152,5.152,0,0,1,8.574,5.716l-5.152,7.729A5.148,5.148,0,0,1,357.147,386.033Z" transform="translate(-238.644 -249.492)" fill="#676665"/>
      <path id="Контур_7" data-name="Контур 7" d="M205.147,474.033a5.153,5.153,0,0,1-4.282-8.011l5.152-7.729a5.152,5.152,0,1,1,8.574,5.716l-5.152,7.729A5.148,5.148,0,0,1,205.147,474.033Z" transform="translate(-135.593 -309.153)" fill="#676665"/>
      <path id="Контур_8" data-name="Контур 8" d="M277.147,418.033a5.153,5.153,0,0,1-4.282-8.011l5.152-7.729a5.152,5.152,0,1,1,8.574,5.716l-5.152,7.729A5.148,5.148,0,0,1,277.147,418.033Z" transform="translate(-184.407 -271.187)" fill="#676665"/>
      <path id="Контур_9" data-name="Контур 9" d="M349.147,474.033a5.153,5.153,0,0,1-4.282-8.011l5.152-7.729a5.152,5.152,0,0,1,8.574,5.716l-5.152,7.729A5.148,5.148,0,0,1,349.147,474.033Z" transform="translate(-233.22 -309.153)" fill="#676665"/>
      <path id="Контур_10" data-name="Контур 10" d="M133.147,418.033a5.153,5.153,0,0,1-4.282-8.011l5.152-7.729a5.152,5.152,0,1,1,8.574,5.716l-5.152,7.729A5.148,5.148,0,0,1,133.147,418.033Z" transform="translate(-86.779 -271.187)" fill="#676665"/>
      <path id="Контур_11" data-name="Контур 11" d="M61.147,474.033a5.153,5.153,0,0,1-4.282-8.011l5.152-7.729a5.152,5.152,0,1,1,8.574,5.716l-5.152,7.729A5.148,5.148,0,0,1,61.147,474.033Z" transform="translate(-37.965 -309.153)" fill="#676665"/>
    </g>
    <g id="sun-3" data-name="sun" transform="translate(-57.251 120.749)" opacity="0.1">
      <path id="Контур_12-3" data-name="Контур 12" d="M121,657.441c0,295.793,240.647,536.441,536.441,536.441s536.441-240.648,536.441-536.441S953.235,121,657.441,121,121,361.647,121,657.441ZM657.441,240.209c230.062,0,417.232,187.17,417.232,417.232S887.5,1074.673,657.441,1074.673,240.209,887.5,240.209,657.441,427.379,240.209,657.441,240.209Z" transform="translate(359.81 359.81)" fill="#fff"/>
      <path id="Контур_13-3" data-name="Контур 13" d="M385.737,385.74a59.6,59.6,0,0,0,0,84.293l287.8,287.795a59.6,59.6,0,1,0,84.293-84.292l-287.8-287.8A59.6,59.6,0,0,0,385.737,385.74Z" transform="translate(1095.13 1095.128)" fill="#fff"/>
      <path id="Контур_14-3" data-name="Контур 14" d="M143.045,58.753a59.6,59.6,0,0,0-84.293,84.293L346.548,430.84a59.6,59.6,0,0,0,84.293-84.293Z" transform="translate(122.795 122.795)" fill="#fff"/>
      <path id="Контур_15-3" data-name="Контур 15" d="M58.753,757.826a59.6,59.6,0,0,0,84.293,0L430.84,470.03a59.6,59.6,0,0,0-84.293-84.293L58.753,673.532A59.6,59.6,0,0,0,58.753,757.826Z" transform="translate(122.795 1095.13)" fill="#fff"/>
      <path id="Контур_16-3" data-name="Контур 16" d="M757.826,58.753a59.6,59.6,0,0,0-84.293,0l-287.8,287.795A59.6,59.6,0,0,0,470.03,430.84l287.8-287.795A59.6,59.6,0,0,0,757.826,58.753Z" transform="translate(1095.13 122.795)" fill="#fff"/>
      <path id="Контур_17-3" data-name="Контур 17" d="M346.689,411.845a59.606,59.606,0,0,0-32.257,77.88l45.617,110.133a59.606,59.606,0,0,0,110.137-45.622L424.569,444.1A59.611,59.611,0,0,0,346.689,411.845Z" transform="translate(921.469 1211.147)" fill="#fff"/>
      <path id="Контур_18-3" data-name="Контур 18" d="M288.681,271.8a59.606,59.606,0,0,0,32.258-77.879L275.322,83.791a59.606,59.606,0,1,0-110.137,45.621L210.8,239.545A59.61,59.61,0,0,0,288.681,271.8Z" transform="translate(477.662 139.707)" fill="#fff"/>
      <path id="Контур_19-3" data-name="Контур 19" d="M193.925,314.428,83.792,360.045a59.606,59.606,0,0,0,45.621,110.138l110.133-45.617a59.606,59.606,0,1,0-45.621-110.137Z" transform="translate(139.705 921.469)" fill="#fff"/>
      <path id="Контур_20-3" data-name="Контур 20" d="M489.726,320.939l110.133-45.617a59.606,59.606,0,1,0-45.621-110.137L444.1,210.8a59.606,59.606,0,1,0,45.621,110.137Z" transform="translate(1211.146 477.667)" fill="#fff"/>
      <path id="Контур_21-3" data-name="Контур 21" d="M210.8,444.1,165.186,554.237a59.606,59.606,0,0,0,110.137,45.622L320.94,489.725A59.606,59.606,0,1,0,210.8,444.1Z" transform="translate(477.665 1211.147)" fill="#fff"/>
      <path id="Контур_22-3" data-name="Контур 22" d="M424.568,239.545l45.617-110.133A59.606,59.606,0,1,0,360.048,83.791L314.43,193.924a59.606,59.606,0,0,0,110.137,45.621Z" transform="translate(921.466 139.707)" fill="#fff"/>
      <path id="Контур_23-3" data-name="Контур 23" d="M239.546,210.8,129.413,165.186A59.606,59.606,0,0,0,83.792,275.323L193.925,320.94A59.606,59.606,0,1,0,239.546,210.8Z" transform="translate(139.705 477.665)" fill="#fff"/>
      <path id="Контур_24-3" data-name="Контур 24" d="M599.86,360.048,489.726,314.431a59.606,59.606,0,1,0-45.621,110.137l110.134,45.617A59.606,59.606,0,1,0,599.86,360.048Z" transform="translate(1211.146 921.47)" fill="#fff"/>
      <path id="Контур_25-3" data-name="Контур 25" d="M241,480.6V723a59.6,59.6,0,0,0,119.21,0V480.6a59.6,59.6,0,0,0-119.21,0Z" transform="translate(716.647 1251.901)" fill="#fff"/>
      <path id="Контур_26-3" data-name="Контур 26" d="M360.21,302V59.6A59.6,59.6,0,0,0,241,59.6V302a59.6,59.6,0,0,0,119.21,0Z" transform="translate(716.647)" fill="#fff"/>
      <path id="Контур_27-3" data-name="Контур 27" d="M0,300.6A59.606,59.606,0,0,0,59.6,360.21H302A59.6,59.6,0,0,0,302,241H59.6A59.606,59.606,0,0,0,0,300.6Z" transform="translate(0 716.647)" fill="#fff"/>
      <path id="Контур_28-3" data-name="Контур 28" d="M723,241H480.6a59.6,59.6,0,0,0,0,119.21H723A59.6,59.6,0,0,0,723,241Z" transform="translate(1251.901 716.647)" fill="#fff"/>
    </g>
  </g>
</svg>
