<svg xmlns="http://www.w3.org/2000/svg" xmlns:xlink="http://www.w3.org/1999/xlink" width="1920" height="1080" viewBox="0 0 1920 1080"><defs><linearGradient id="a" x1="0.5" y1="-0.102" x2="0.516" y2="1.349" gradientUnits="objectBoundingBox"><stop offset="0" stop-color="#f8fdd7"/><stop offset="0.459" stop-color="#fe9ece"/><stop offset="0.629" stop-color="#c989db"/><stop offset="1" stop-color="#565bf6"/></linearGradient><clipPath id="c"><rect width="1920" height="1080"/></clipPath></defs><g id="b" clip-path="url(#c)"><rect width="1920" height="1080" fill="#fff"/><rect width="1920" height="1080" transform="translate(1 -1)" fill="url(#a)"/><path d="M1,1V1079H1919V1H1M0,0H1920V1080H0Z" transform="translate(1 -1)" fill="#707070"/><path d="M1660.163,399.239q-7.908,0-15.8.523a225.746,225.746,0,0,0-151.131-102.687,290.644,290.644,0,0,0-274.985-196.058c-121.238,0-225.661,75.076-269.149,181.158a382.707,382.707,0,0,0-222.319-71c-192.644,0-352.576,142.753-379.568,328.033C154.964,543.884,0,701.727,0,895.076c0,196.284,159.69,355.975,355.975,355.975h987.082c172.031,0,311.986-139.956,311.986-311.986a312.379,312.379,0,0,0-6.01-60.91h11.127c132.035,0,239.456-107.421,239.456-239.456s-107.418-239.46-239.452-239.46Zm-317.1,740.507H355.975c-134.91,0-244.669-109.759-244.669-244.669S221.065,650.408,355.975,650.408c15.293-1.239,82.381,9.442,99.285,11.746-19.137-189.164,86.93-333.086,271.516-339.672,162.918,2.72,261.083,122.971,276.265,269.657,144.189-13.49,205.333,53.1,238.566,166.306,31.3-8,65.9-20.146,101.452-20.061,110.656,0,200.68,90.024,200.68,200.681s-90.02,200.681-200.677,200.681Zm317.1-372.9h-57.126c-55.935-84.162-151.569-139.77-259.977-139.77a312.464,312.464,0,0,0-33.9,1.848,292.683,292.683,0,0,0-215.666-146.7,381.344,381.344,0,0,0-53.713-109.354c9.539-90.02,86.128-160.548,178.46-160.548a179.288,179.288,0,0,1,176.512,146.953l8.585,46.953c120.767-12.255,147.536,37.688,174.1,121.824,27.166-6.378,52.236-16.755,82.719-17.508a128.152,128.152,0,0,1,0,256.3Z" transform="translate(-82.615 21.966)" fill="#fff" opacity="0.1"/></g></svg>