<svg id="Capa_1" enable-background="new 0 0 512 512" height="512" viewBox="0 0 512 512" width="512" xmlns="http://www.w3.org/2000/svg"><path d="m447.46 181.396c-1.421 0-2.841.047-4.259.141-9.021-14.505-23.871-24.625-40.734-27.677-10.706-31.214-40.231-52.843-74.116-52.843-32.677 0-60.822 20.235-72.543 48.827-17.011-12.1-37.753-19.136-59.921-19.136-51.923 0-95.029 38.476-102.304 88.414-51.816 1.26-93.583 43.803-93.583 95.916 0 52.904 43.041 95.945 95.945 95.945h266.046c46.367 0 84.089-37.722 84.089-84.089 0-5.618-.565-11.105-1.62-16.417h2.999c35.587 0 64.54-28.953 64.54-64.54s-28.952-64.541-64.539-64.541zm-85.468 199.587h-266.047c-36.362 0-65.945-29.583-65.945-65.945s29.583-65.945 65.945-65.945c4.122-.334 22.204 2.545 26.76 3.166-5.158-50.985 23.43-89.776 73.181-91.551 43.911.733 70.369 33.144 74.461 72.68 38.863-3.636 55.343 14.313 64.3 44.824 8.437-2.157 17.763-5.43 27.344-5.407 29.825 0 54.089 24.264 54.089 54.089.001 29.825-24.263 54.089-54.088 54.089zm85.468-100.506h-15.397c-15.076-22.684-40.852-37.672-70.071-37.672-3.054 0-6.104.167-9.137.498-12.03-21.484-33.64-36.235-58.128-39.54-3.27-10.715-8.204-20.628-14.477-29.474 2.571-24.263 23.214-43.272 48.1-43.272 23.37 0 43.377 16.658 47.575 39.608l2.314 12.655c32.55-3.303 39.765 10.158 46.925 32.835 7.322-1.719 14.079-4.516 22.295-4.719 19.045 0 34.54 15.495 34.54 34.54s-15.494 34.541-34.539 34.541z"/></svg>